<svg width="382" height="97" viewBox="0 0 382 97" fill="none" xmlns="http://www.w3.org/2000/svg">
<g clip-path="url(#clip0_81_1240)">
<path d="M130.9 73.8C136.4 73.4 141.8 73 147 72.5V72.4C149.6 72.1 152.4 71.9 155.2 71.5V71.6C160.9 71 166.4 70.2 171.7 69.4C174.5 69 177.3 68.6 180.2 68.1C180.3 68.1 180.4 68.1 180.4 68.1C211.6 63 247.2 54 275.8 38C275.8 38 242.3 38 235.6 31.6L242.7 44.1C242.7 44.1 240.3 45.3 235.9 47.2L213.8 6L182.2 64.6C179.3 65.3 176.3 66 173.3 66.6L190.7 33.2V6L156.2 69.9C153.4 70.4 150.6 70.8 147.8 71.2L167.6 33.2V6L131.3 73.2C123.4 74 115.3 74.6 107 74.8C107 74.8 116.2 74.8 130.9 73.8ZM213.8 33.2L223.6 52C217.1 54.4 209.2 57.1 200 59.8L213.8 33.2Z" fill="white"/>
<path d="M130.3 74.9L121.2 91.7H137L146 74.5C140.3 74.7 135.1 74.9 130.3 74.9Z" fill="white"/>
<path d="M153.9 74.1L144.4 91.7H160.2L170 73C164.4 73.4 159 73.8 153.9 74.1Z" fill="white"/>
<path d="M167.5 91.7H183.3L194.5 70.3C188.9 71 183.4 71.7 178 72.2L167.5 91.7Z" fill="white"/>
<path d="M229.7 63.7999L244.2 91.6999H260L243 60.2C238.7 61.5 234.2 62.6999 229.7 63.7999Z" fill="white"/>
</g>
<defs>
<clipPath id="clip0_81_1240">
<rect width="168.8" height="85.7" fill="white" transform="translate(107 6)"/>
</clipPath>
</defs>
</svg>
