<svg width="383" height="65" viewBox="0 0 383 65" fill="none" xmlns="http://www.w3.org/2000/svg">
<g clip-path="url(#clip0_61_212)">
<g clip-path="url(#clip1_61_212)">
<path d="M159.3 55.2999H157.9L161.9 44.2999H163.3L167.3 55.2999H165.9L162.6 46.0999H162.5L159.3 55.2999ZM159.8 50.9999H165.4V52.1999H159.8V50.9999Z" fill="white"/>
<path d="M178.1 47.0999C178 46.5999 177.8 46.0999 177.3 45.7999C176.8 45.4999 176.3 45.2999 175.6 45.2999C175.1 45.2999 174.7 45.4 174.3 45.5C173.9 45.7 173.7 45.8999 173.5 46.0999C173.3 46.3999 173.2 46.7 173.2 47C173.2 47.3 173.3 47.4999 173.4 47.7999C173.5 47.9999 173.7 48.1999 173.9 48.2999C174.1 48.3999 174.4 48.5999 174.6 48.5999C174.8 48.5999 175.1 48.7999 175.3 48.7999L176.4 49.0999C176.7 49.1999 177 49.3 177.4 49.4C177.8 49.5 178.1 49.7 178.4 49.9C178.7 50.1 179 50.3999 179.2 50.7999C179.4 51.1999 179.5 51.5999 179.5 52.0999C179.5 52.6999 179.3 53.2 179 53.7C178.7 54.2 178.2 54.5999 177.6 54.7999C177 55.0999 176.3 55.2 175.4 55.2C174.6 55.2 173.9 55.0999 173.4 54.7999C172.8 54.4999 172.4 54.2 172 53.7C171.7 53.2 171.5 52.6999 171.4 52.0999H172.8C172.8 52.4999 173 52.8999 173.2 53.0999C173.4 53.3999 173.8 53.6 174.1 53.7C174.5 53.8 174.9 53.9 175.3 53.9C175.8 53.9 176.3 53.8 176.7 53.7C177.1 53.5 177.4 53.3 177.7 53C177.9 52.7 178.1 52.4 178.1 52C178.1 51.6 178 51.2999 177.8 51.0999C177.6 50.8999 177.3 50.7 177 50.5C176.7 50.4 176.3 50.1999 175.9 50.0999L174.5 49.7C173.6 49.5 173 49.0999 172.5 48.5999C172 48.0999 171.7 47.4999 171.7 46.7999C171.7 46.1999 171.9 45.6 172.2 45.2C172.5 44.7 173 44.3999 173.6 44.0999C174.2 43.7999 174.8 43.7 175.5 43.7C176.2 43.7 176.8 43.7999 177.4 44.0999C178 44.3999 178.4 44.6999 178.7 45.0999C179 45.4999 179.2 45.9999 179.2 46.5999H178.1V47.0999Z" fill="white"/>
<path d="M190.8 47.0999C190.7 46.5999 190.5 46.0999 190 45.7999C189.5 45.4999 189 45.2999 188.3 45.2999C187.8 45.2999 187.4 45.4 187 45.5C186.6 45.7 186.4 45.8999 186.2 46.0999C186 46.3999 185.9 46.7 185.9 47C185.9 47.3 186 47.4999 186.1 47.7999C186.2 47.9999 186.4 48.1999 186.6 48.2999C186.8 48.3999 187.1 48.5999 187.3 48.5999C187.5 48.6999 187.8 48.7999 188 48.7999L189.1 49.0999C189.4 49.1999 189.7 49.3 190.1 49.4C190.5 49.5 190.8 49.7 191.1 49.9C191.4 50.1 191.7 50.3999 191.9 50.7999C192.1 51.1999 192.2 51.5999 192.2 52.0999C192.2 52.6999 192 53.2 191.7 53.7C191.4 54.2 190.9 54.5999 190.3 54.7999C189.7 55.0999 189 55.2 188.1 55.2C187.3 55.2 186.6 55.0999 186.1 54.7999C185.5 54.4999 185.1 54.2 184.7 53.7C184.4 53.2 184.2 52.6999 184.1 52.0999H185.5C185.5 52.4999 185.7 52.8999 185.9 53.0999C186.1 53.3999 186.5 53.6 186.8 53.7C187.2 53.8 187.6 53.9 188 53.9C188.5 53.9 189 53.8 189.4 53.7C189.8 53.5 190.1 53.3 190.4 53C190.6 52.7 190.8 52.4 190.8 52C190.8 51.6 190.7 51.2999 190.5 51.0999C190.3 50.8999 190 50.7 189.7 50.5C189.4 50.4 189 50.1999 188.6 50.0999L187.2 49.7C186.3 49.5 185.7 49.0999 185.2 48.5999C184.7 48.0999 184.4 47.4999 184.4 46.7999C184.4 46.1999 184.6 45.6 184.9 45.2C185.2 44.7 185.7 44.3999 186.3 44.0999C186.9 43.7999 187.5 43.7 188.2 43.7C188.9 43.7 189.5 43.7999 190.1 44.0999C190.7 44.3999 191.1 44.6999 191.4 45.0999C191.7 45.4999 191.9 45.9999 191.9 46.5999H190.8V47.0999Z" fill="white"/>
<path d="M197.5 55.2999V44.2999H204.1V45.4999H198.8V49.1999H203.8V50.3999H198.8V54.0999H204.2V55.2999H197.5Z" fill="white"/>
<path d="M209 45.4999V44.2999H217.2V45.4999H213.7V55.2999H212.4V45.4999H209Z" fill="white"/>
<path d="M228.4 47.0999C228.3 46.5999 228.1 46.0999 227.6 45.7999C227.1 45.4999 226.6 45.2999 225.9 45.2999C225.4 45.2999 225 45.4 224.6 45.5C224.2 45.7 224 45.8999 223.8 46.0999C223.6 46.3999 223.5 46.7 223.5 47C223.5 47.3 223.6 47.4999 223.7 47.7999C223.8 47.9999 224 48.1999 224.2 48.2999C224.4 48.3999 224.7 48.5999 224.9 48.5999C225.1 48.6999 225.4 48.7999 225.6 48.7999L226.7 49.0999C227 49.1999 227.3 49.3 227.7 49.4C228.1 49.5 228.4 49.7 228.7 49.9C229 50.1 229.3 50.3999 229.5 50.7999C229.7 51.1999 229.8 51.5999 229.8 52.0999C229.8 52.6999 229.6 53.2 229.3 53.7C229 54.2 228.5 54.5999 227.9 54.7999C227.3 55.0999 226.6 55.2 225.7 55.2C224.9 55.2 224.2 55.0999 223.7 54.7999C223.1 54.4999 222.7 54.2 222.3 53.7C222 53.2 221.8 52.6999 221.7 52.0999H223.1C223.1 52.4999 223.3 52.8999 223.5 53.0999C223.7 53.3999 224.1 53.6 224.4 53.7C224.8 53.8 225.2 53.9 225.6 53.9C226.1 53.9 226.6 53.8 227 53.7C227.4 53.5 227.7 53.3 228 53C228.2 52.7 228.4 52.4 228.4 52C228.4 51.6 228.3 51.2999 228.1 51.0999C227.9 50.8999 227.6 50.7 227.3 50.5C227 50.4 226.6 50.1999 226.2 50.0999L224.8 49.7C223.9 49.5 223.3 49.0999 222.8 48.5999C222.3 48.0999 222 47.4999 222 46.7999C222 46.1999 222.2 45.6 222.5 45.2C222.8 44.7 223.3 44.3999 223.9 44.0999C224.5 43.7999 225.1 43.7 225.8 43.7C226.5 43.7 227.1 43.7999 227.7 44.0999C228.3 44.3999 228.7 44.6999 229 45.0999C229.3 45.4999 229.5 45.9999 229.5 46.5999H228.4V47.0999Z" fill="white"/>
<path d="M243.8 44.2999V55.2999H242.5V44.2999H243.8Z" fill="white"/>
<path d="M258.2 44.2999V55.2999H257L251 46.6999H250.9V55.2999H249.6V44.2999H250.9L256.9 52.8999H257V44.2999H258.2Z" fill="white"/>
<path d="M264.4 44.2999L267.7 53.4999H267.8L271.1 44.2999H272.5L268.5 55.2999H267.1L263.1 44.2999H264.4Z" fill="white"/>
<path d="M277.3 55.2999V44.2999H283.9V45.4999H278.6V49.1999H283.6V50.3999H278.6V54.0999H284V55.2999H277.3Z" fill="white"/>
<path d="M295.4 47.0999C295.3 46.5999 295.1 46.0999 294.6 45.7999C294.1 45.4999 293.6 45.2999 292.9 45.2999C292.4 45.2999 292 45.4 291.6 45.5C291.2 45.7 291 45.8999 290.8 46.0999C290.6 46.3999 290.5 46.7 290.5 47C290.5 47.3 290.6 47.4999 290.7 47.7999C290.8 47.9999 291 48.1999 291.2 48.2999C291.4 48.3999 291.7 48.5999 291.9 48.5999C292.1 48.5999 292.4 48.7999 292.6 48.7999L293.7 49.0999C294 49.1999 294.3 49.3 294.7 49.4C295.1 49.5 295.4 49.7 295.7 49.9C296 50.1 296.3 50.3999 296.5 50.7999C296.7 51.1999 296.8 51.5999 296.8 52.0999C296.8 52.6999 296.6 53.2 296.3 53.7C296 54.2 295.5 54.5999 294.9 54.7999C294.3 55.0999 293.6 55.2 292.7 55.2C291.9 55.2 291.2 55.0999 290.7 54.7999C290.1 54.4999 289.7 54.2 289.3 53.7C289 53.2 288.8 52.6999 288.7 52.0999H290.1C290.1 52.4999 290.3 52.8999 290.5 53.0999C290.7 53.3999 291.1 53.6 291.4 53.7C291.8 53.8 292.2 53.9 292.6 53.9C293.1 53.9 293.6 53.8 294 53.7C294.4 53.5 294.7 53.3 295 53C295.2 52.7 295.4 52.4 295.4 52C295.4 51.6 295.3 51.2999 295.1 51.0999C294.9 50.8999 294.6 50.7 294.3 50.5C294 50.4 293.6 50.1999 293.2 50.0999L291.8 49.7C290.9 49.5 290.3 49.0999 289.8 48.5999C289.3 48.0999 289 47.4999 289 46.7999C289 46.1999 289.2 45.6 289.5 45.2C289.8 44.7 290.3 44.3999 290.9 44.0999C291.5 43.7999 292.1 43.7 292.8 43.7C293.5 43.7 294.1 43.7999 294.7 44.0999C295.3 44.3999 295.7 44.6999 296 45.0999C296.3 45.4999 296.5 45.9999 296.5 46.5999H295.4V47.0999Z" fill="white"/>
<path d="M301.5 45.4999V44.2999H309.7V45.4999H306.2V55.2999H305V45.4999H301.5Z" fill="white"/>
<path d="M314.9 44.2999H316.5L320.2 53.3999H320.3L324 44.2999H325.6V55.2999H324.4V46.9999H324.3L320.9 55.2999H319.7L316.3 46.9999H316.2V55.2999H315V44.2999H314.9Z" fill="white"/>
<path d="M331.4 55.2999V44.2999H338V45.4999H332.7V49.1999H337.7V50.3999H332.7V54.0999H338.1V55.2999H331.4Z" fill="white"/>
<path d="M352.2 44.2999V55.2999H350.9L344.9 46.6999H344.8V55.2999H343.5V44.2999H344.8L350.8 52.8999H350.9V44.2999H352.2Z" fill="white"/>
<path d="M357.4 45.4999V44.2999H365.6V45.4999H362.1V55.2999H360.8V45.4999H357.4Z" fill="white"/>
<path d="M171 28.9H170.8L164.8 10.2H159L167.5 34.9H174.2L182.8 10.2H177L171 28.9Z" fill="white"/>
<path d="M202.8 30.5999H191.3V24.7H201.9V20.4H191.3V14.5H202.7V10.2H186.1V34.9H202.8V30.5999Z" fill="white"/>
<path d="M221.7 25.2C223 24.6 224.1 23.7 224.8 22.5C225.5 21.3 225.9 19.9 225.9 18.3C225.9 16.7 225.6 15.2 224.9 14C224.2 12.8 223.2 11.9 221.9 11.2C220.6 10.5 219 10.2 217.1 10.2H207.4V34.9H212.6V26.1H216.4L221.1 34.9H226.9L221.7 25.3C221.5 25.2 221.6 25.2 221.7 25.2ZM212.4 14.4H215.9C216.9 14.4 217.7 14.5 218.4 14.8C219.1 15.1 219.6 15.5 219.9 16.1C220.2 16.7 220.4 17.4 220.4 18.2C220.4 19 220.2 19.7 219.9 20.2C219.6 20.7 219.1 21.2 218.4 21.4C217.7 21.7 216.9 21.8 215.9 21.8H212.4V14.4Z" fill="white"/>
<path d="M237 10.2L228.5 34.9H234.1L235.9 29.2999H244.8L246.6 34.9H252.2L243.7 10.2H237ZM237.3 25.2L240.3 15.9H240.5L243.5 25.2H237.3Z" fill="white"/>
<path d="M284.6 29.7C285.1 28.7 285.5 27.6 285.6 26.4H280.3C280.2 27.1 280 27.6 279.7 28.2C279.4 28.7 279 29.2 278.5 29.5C278 29.9 277.5 30.1 276.9 30.3C276.3 30.5 275.7 30.6 275 30.6C273.8 30.6 272.7 30.3 271.7 29.7C270.8 29.1 270 28.2 269.5 27C269 25.8 268.7 24.3 268.7 22.6C268.7 20.9 269 19.4 269.5 18.2C270 17 270.8 16.1 271.7 15.5C272.6 14.9 273.8 14.6 275 14.6C275.7 14.6 276.4 14.7 277 14.9C277.6 15.1 278.1 15.4 278.6 15.8C279.1 16.2 279.4 16.6 279.7 17.2C280 17.7 280.2 18.3 280.3 19H285.6C285.4 17.6 285 16.3 284.4 15.2C283.8 14.1 283 13.2 282.1 12.4C281.2 11.6 280.1 11 278.8 10.6C277.6 10.2 276.2 10 274.8 10C272.6 10 270.7 10.5 268.9 11.5C267.2 12.5 265.8 13.9 264.8 15.8C263.8 17.7 263.3 20 263.3 22.7C263.3 25.4 263.8 27.7 264.8 29.6C265.8 31.5 267.2 32.9 268.9 33.9C270.6 34.9 272.6 35.4 274.8 35.4C276.4 35.4 277.8 35.2 279.1 34.7C280.4 34.2 281.4 33.6 282.4 32.7C283.3 31.7 284 30.8 284.6 29.7Z" fill="white"/>
<path d="M303.9 25.3C304 25.3 304.1 25.2 304.1 25.2C305.4 24.6 306.5 23.7 307.2 22.5C307.9 21.3 308.3 19.9 308.3 18.3C308.3 16.7 308 15.2 307.3 14C306.6 12.8 305.6 11.9 304.3 11.2C303 10.5 301.4 10.2 299.5 10.2H289.8V34.9H295V26.1H298.8L303.5 34.9H309.3L303.9 25.3ZM294.9 14.4H298.4C299.4 14.4 300.2 14.5 300.9 14.8C301.6 15.1 302.1 15.5 302.4 16.1C302.7 16.7 302.9 17.4 302.9 18.2C302.9 19 302.7 19.7 302.4 20.2C302.1 20.7 301.6 21.2 300.9 21.4C300.2 21.7 299.4 21.8 298.4 21.8H294.9V14.4Z" fill="white"/>
<path d="M327.6 25.8C327.6 26.7 327.4 27.5999 327 28.2999C326.6 28.9999 326 29.6 325.3 30C324.5 30.4 323.7 30.5999 322.7 30.5999C321.7 30.5999 320.8 30.4 320.1 30C319.3 29.6 318.8 28.9999 318.3 28.2999C317.9 27.5999 317.7 26.7 317.7 25.8V10.2H312.5V26.2C312.5 28 312.9 29.6 313.8 30.9C314.7 32.3 315.8 33.2999 317.4 34.0999C318.9 34.8999 320.7 35.2 322.8 35.2C324.8 35.2 326.6 34.7999 328.2 34.0999C329.7 33.2999 330.9 32.3 331.8 30.9C332.7 29.5 333.1 28 333.1 26.2V10.2H327.9V25.8H327.6Z" fill="white"/>
<path d="M337.1 31.7999V34.9H356.1V30.5999H343.7L356 13.3V10.2H337.1V14.5H349.5L337.1 31.7999Z" fill="white"/>
<path d="M35.3 52.5C39.7 52.2 44.1 51.9 48.3 51.5V51.4C50.4 51.2 52.6 51 54.9 50.7V50.8C59.5 50.3 63.9 49.7 68.2 49.1C70.4 48.8 72.7 48.4 75 48C75.1 48 75.1 48 75.2 48C100.2 43.9 128.8 36.6 151.9 23.8C151.9 23.8 125 23.8 119.5 18.6L125.2 28.6C125.2 28.6 123.3 29.5 119.7 31.1L101.9 -2L76.5 45.1C74.2 45.7 71.8 46.2 69.3 46.7L83.3 19.9V-2L55.6 49.4C53.4 49.8 51.1 50.1 48.8 50.5L64.7 20V-2L35.5 52.1C29.2 52.7 22.7 53.1 16 53.3C16 53.3 23.4 53.3 35.3 52.5ZM101.9 19.9L109.7 35C104.5 36.9 98.1 39.1 90.7 41.3L101.9 19.9Z" fill="white"/>
<path d="M34.8 53.4L27.5 66.9H40.2L47.4 53C42.8 53.3 38.6 53.4 34.8 53.4Z" fill="white"/>
<path d="M53.7 52.8L46.1 67H58.8L66.7 51.9C62.2 52.2 57.8 52.5 53.7 52.8Z" fill="white"/>
<path d="M64.7 66.9H77.4L86.4 49.7C81.9 50.3 77.5 50.7999 73.2 51.2999L64.7 66.9Z" fill="white"/>
<path d="M114.7 44.5L126.4 67H139.1L125.4 41.7C121.9 42.7 118.3 43.6 114.7 44.5Z" fill="white"/>
</g>
</g>
<defs>
<clipPath id="clip0_61_212">
<rect width="382.3" height="64.5" fill="white" transform="translate(0 0.5)"/>
</clipPath>
<clipPath id="clip1_61_212">
<rect width="349.6" height="68.9" fill="white" transform="translate(16 -2)"/>
</clipPath>
</defs>
</svg>
