<svg width="382" height="185" viewBox="0 0 382 185" fill="none" xmlns="http://www.w3.org/2000/svg">
<g clip-path="url(#clip0_81_1416)">
<path d="M88.4 166.6H87L91 155.6H92.4L96.4 166.6H95L91.7 157.4L88.4 166.6ZM88.9 162.3H94.5V163.5H88.9V162.3Z" fill="#182649"/>
<path d="M107.2 158.4C107.1 157.9 106.9 157.4 106.4 157.1C105.9 156.8 105.4 156.6 104.7 156.6C104.2 156.6 103.8 156.7 103.4 156.8C103 157 102.8 157.2 102.6 157.4C102.4 157.7 102.3 158 102.3 158.3C102.3 158.6 102.4 158.8 102.5 159.1C102.6 159.3 102.8 159.5 103 159.6C103.2 159.7 103.5 159.9 103.7 159.9C103.9 160 104.2 160.1 104.4 160.1L105.5 160.4C105.8 160.5 106.1 160.6 106.5 160.7C106.9 160.8 107.2 161 107.5 161.2C107.8 161.4 108.1 161.7 108.3 162.1C108.5 162.5 108.6 162.9 108.6 163.4C108.6 164 108.4 164.5 108.1 165C107.8 165.5 107.3 165.9 106.7 166.1C106.1 166.4 105.4 166.5 104.5 166.5C103.7 166.5 103 166.4 102.5 166.1C101.9 165.8 101.5 165.5 101.1 165C100.8 164.5 100.6 164 100.5 163.4H101.9C101.9 163.8 102.1 164.2 102.3 164.4C102.5 164.7 102.9 164.9 103.2 165C103.6 165.1 104 165.2 104.4 165.2C104.9 165.2 105.4 165.1 105.8 165C106.2 164.8 106.5 164.6 106.8 164.3C107 164 107.2 163.7 107.2 163.3C107.2 162.9 107.1 162.6 106.9 162.4C106.7 162.2 106.4 162 106.1 161.8C105.8 161.7 105.4 161.5 105 161.4L103.6 161C102.7 160.8 102.1 160.4 101.6 159.9C101.1 159.4 100.8 158.8 100.8 158.1C100.8 157.5 101 156.9 101.3 156.5C101.6 156 102.1 155.7 102.7 155.4C103.3 155.1 103.9 155 104.6 155C105.3 155 105.9 155.1 106.5 155.4C107.1 155.7 107.5 156 107.8 156.4C108.1 156.8 108.3 157.3 108.3 157.9H107.2V158.4Z" fill="#182649"/>
<path d="M120 158.4C119.9 157.9 119.7 157.4 119.2 157.1C118.7 156.8 118.2 156.6 117.5 156.6C117 156.6 116.6 156.7 116.2 156.8C115.8 157 115.6 157.2 115.4 157.4C115.2 157.7 115.1 158 115.1 158.3C115.1 158.6 115.2 158.8 115.3 159.1C115.4 159.3 115.6 159.5 115.8 159.6C116 159.7 116.3 159.9 116.5 159.9C116.7 160 117 160.1 117.2 160.1L118.3 160.4C118.6 160.5 118.9 160.6 119.3 160.7C119.7 160.8 120 161 120.3 161.2C120.6 161.4 120.9 161.7 121.1 162.1C121.3 162.5 121.4 162.9 121.4 163.4C121.4 164 121.2 164.5 120.9 165C120.6 165.5 120.1 165.9 119.5 166.1C118.9 166.4 118.2 166.5 117.3 166.5C116.5 166.5 115.8 166.4 115.3 166.1C114.7 165.8 114.3 165.5 113.9 165C113.6 164.5 113.4 164 113.3 163.4H114.7C114.7 163.8 114.9 164.2 115.1 164.4C115.3 164.7 115.7 164.9 116 165C116.4 165.1 116.8 165.2 117.2 165.2C117.7 165.2 118.2 165.1 118.6 165C119 164.8 119.3 164.6 119.6 164.3C119.8 164 120 163.7 120 163.3C120 162.9 119.9 162.6 119.7 162.4C119.5 162.2 119.2 162 118.9 161.8C118.6 161.7 118.2 161.5 117.8 161.4L116.4 161C115.5 160.8 114.9 160.4 114.4 159.9C113.9 159.4 113.6 158.8 113.6 158.1C113.6 157.5 113.8 156.9 114.1 156.5C114.4 156 114.9 155.7 115.5 155.4C116.1 155.1 116.7 155 117.4 155C118.1 155 118.7 155.1 119.3 155.4C119.9 155.7 120.3 156 120.6 156.4C120.9 156.8 121.1 157.3 121.1 157.9H120V158.4Z" fill="#182649"/>
<path d="M126.7 166.6V155.6H133.3V156.8H128V160.5H133V161.7H128V165.4H133.4V166.6H126.7Z" fill="#182649"/>
<path d="M138.2 156.8V155.6H146.4V156.8H143V166.6H141.7V156.8H138.2Z" fill="#182649"/>
<path d="M157.6 158.4C157.5 157.9 157.3 157.4 156.8 157.1C156.3 156.8 155.8 156.6 155.1 156.6C154.6 156.6 154.2 156.7 153.8 156.8C153.4 157 153.2 157.2 153 157.4C152.8 157.7 152.7 158 152.7 158.3C152.7 158.6 152.8 158.8 152.9 159.1C153 159.3 153.2 159.5 153.4 159.6C153.6 159.7 153.9 159.9 154.1 159.9C154.3 160 154.6 160.1 154.8 160.1L155.9 160.4C156.2 160.5 156.5 160.6 156.9 160.7C157.3 160.8 157.6 161 157.9 161.2C158.2 161.4 158.5 161.7 158.7 162.1C158.9 162.5 159 162.9 159 163.4C159 164 158.8 164.5 158.5 165C158.2 165.5 157.7 165.9 157.1 166.1C156.5 166.4 155.8 166.5 154.9 166.5C154.1 166.5 153.4 166.4 152.9 166.1C152.3 165.8 151.9 165.5 151.5 165C151.2 164.5 151 164 150.9 163.4H152.3C152.3 163.8 152.5 164.2 152.7 164.4C152.9 164.7 153.3 164.9 153.6 165C154 165.1 154.4 165.2 154.8 165.2C155.3 165.2 155.8 165.1 156.2 165C156.6 164.8 156.9 164.6 157.2 164.3C157.4 164 157.6 163.7 157.6 163.3C157.6 162.9 157.5 162.6 157.3 162.4C157.1 162.2 156.8 162 156.5 161.8C156.2 161.7 155.8 161.5 155.4 161.4L154 161C153.1 160.8 152.5 160.4 152 159.9C151.5 159.4 151.2 158.8 151.2 158.1C151.2 157.5 151.4 156.9 151.7 156.5C152 156 152.5 155.7 153.1 155.4C153.7 155.1 154.3 155 155 155C155.7 155 156.3 155.1 156.9 155.4C157.5 155.7 157.9 156 158.2 156.4C158.5 156.8 158.7 157.3 158.7 157.9H157.6V158.4Z" fill="#182649"/>
<path d="M172.9 155.6V166.6H171.6V155.6H172.9Z" fill="#182649"/>
<path d="M187.4 155.6V166.6H186.1L180.1 158H180V166.6H178.7V155.6H180L186 164.2H186.1V155.6H187.4Z" fill="#182649"/>
<path d="M193.6 155.6L196.9 164.8H197L200.3 155.6H201.7L197.7 166.6H196.3L192.3 155.6H193.6Z" fill="#182649"/>
<path d="M206.4 166.6V155.6H213V156.8H207.7V160.5H212.7V161.7H207.7V165.4H213.1V166.6H206.4Z" fill="#182649"/>
<path d="M224.5 158.4C224.4 157.9 224.2 157.4 223.7 157.1C223.2 156.8 222.7 156.6 222 156.6C221.5 156.6 221.1 156.7 220.7 156.8C220.3 157 220.1 157.2 219.9 157.4C219.7 157.7 219.6 158 219.6 158.3C219.6 158.6 219.7 158.8 219.8 159.1C219.9 159.3 220.1 159.5 220.3 159.6C220.5 159.7 220.8 159.9 221 159.9C221.2 160 221.5 160.1 221.7 160.1L222.8 160.4C223.1 160.5 223.4 160.6 223.8 160.7C224.2 160.8 224.5 161 224.8 161.2C225.1 161.4 225.4 161.7 225.6 162.1C225.8 162.5 225.9 162.9 225.9 163.4C225.9 164 225.7 164.5 225.4 165C225.1 165.5 224.6 165.9 224 166.1C223.4 166.4 222.7 166.5 221.8 166.5C221 166.5 220.3 166.4 219.8 166.1C219.2 165.8 218.8 165.5 218.4 165C218.1 164.5 217.9 164 217.8 163.4H219.2C219.2 163.8 219.4 164.2 219.6 164.4C219.8 164.7 220.2 164.9 220.5 165C220.9 165.1 221.3 165.2 221.7 165.2C222.2 165.2 222.7 165.1 223.1 165C223.5 164.8 223.8 164.6 224.1 164.3C224.3 164 224.5 163.7 224.5 163.3C224.5 162.9 224.4 162.6 224.2 162.4C224 162.2 223.7 162 223.4 161.8C223.1 161.7 222.7 161.5 222.3 161.4L220.9 161C220 160.8 219.4 160.4 218.9 159.9C218.4 159.4 218.1 158.8 218.1 158.1C218.1 157.5 218.3 156.9 218.6 156.5C218.9 156 219.4 155.7 220 155.4C220.6 155.1 221.2 155 221.9 155C222.6 155 223.2 155.1 223.8 155.4C224.4 155.7 224.8 156 225.1 156.4C225.4 156.8 225.6 157.3 225.6 157.9H224.5V158.4Z" fill="#182649"/>
<path d="M230.7 156.8V155.6H238.9V156.8H235.4V166.6H234.1V156.8H230.7Z" fill="#182649"/>
<path d="M244 155.6H245.6L249.3 164.7H249.4L253.1 155.6H254.7V166.6H253.5V158.3H253.4L250 166.6H248.8L245.4 158.3H245.3V166.6H244V155.6Z" fill="#182649"/>
<path d="M260.5 166.6V155.6H267.1V156.8H261.8V160.5H266.8V161.7H261.8V165.4H267.2V166.6H260.5Z" fill="#182649"/>
<path d="M281.4 155.6V166.6H280.1L274.1 158H274V166.6H272.7V155.6H274L280 164.2H280.1V155.6H281.4Z" fill="#182649"/>
<path d="M286.5 156.8V155.6H294.7V156.8H291.2V166.6H290V156.8H286.5Z" fill="#182649"/>
<path d="M93.8 119.2L100.1 138.9H100.3L106.6 119.2H112.7L103.8 145.1H96.6L87.7 119.2H93.8Z" fill="#182649"/>
<path d="M116.1 145.1V119.2H133.6V123.7H121.6V129.9H132.7V134.4H121.6V140.6H133.6V145.1H116.1Z" fill="#182649"/>
<path d="M138.3 145.1V119.2H148.5C150.5 119.2 152.1 119.5 153.5 120.2C154.9 120.9 155.9 121.9 156.7 123.1C157.5 124.3 157.8 125.9 157.8 127.6C157.8 129.3 157.4 130.8 156.7 132C156 133.2 154.9 134.2 153.5 134.8C152.1 135.5 150.4 135.8 148.4 135.8H141.6V131.4H147.6C148.6 131.4 149.5 131.3 150.2 131C150.9 130.7 151.4 130.3 151.8 129.7C152.1 129.1 152.3 128.4 152.3 127.6C152.3 126.7 152.1 126 151.8 125.4C151.5 124.8 150.9 124.4 150.2 124.1C149.5 123.8 148.6 123.6 147.6 123.6H143.9V145H138.3V145.1ZM152.3 133.4L158.7 145.2H152.7L146.4 133.4H152.3Z" fill="#182649"/>
<path d="M166.5 145.1H160.6L169.5 119.2H176.6L185.5 145.1H179.6L173.1 125.1H173L166.5 145.1ZM166.1 135H180V139.3H166.1V135Z" fill="#182649"/>
<path d="M220.5 128.3H215C214.9 127.6 214.7 126.9 214.4 126.4C214.1 125.8 213.7 125.4 213.2 125C212.7 124.6 212.1 124.3 211.5 124.1C210.9 123.9 210.2 123.8 209.4 123.8C208.1 123.8 206.9 124.1 205.9 124.8C204.9 125.5 204.1 126.4 203.6 127.7C203.1 129 202.8 130.5 202.8 132.3C202.8 134.1 203.1 135.7 203.6 137C204.2 138.3 204.9 139.2 205.9 139.8C206.9 140.4 208 140.8 209.4 140.8C210.1 140.8 210.8 140.7 211.4 140.5C212 140.3 212.6 140 213.1 139.6C213.6 139.2 214 138.8 214.3 138.2C214.6 137.7 214.9 137 215 136.4H220.5C220.4 137.6 220 138.7 219.4 139.8C218.8 140.9 218.1 141.9 217.1 142.7C216.1 143.6 215 144.2 213.7 144.7C212.4 145.2 210.9 145.5 209.2 145.5C206.9 145.5 204.8 145 203 143.9C201.2 142.9 199.7 141.3 198.7 139.4C197.6 137.4 197.1 135 197.1 132.2C197.1 129.4 197.6 127 198.7 125C199.8 123 201.2 121.5 203 120.5C204.8 119.5 206.9 118.9 209.1 118.9C210.6 118.9 212 119.1 213.3 119.5C214.6 119.9 215.7 120.5 216.7 121.3C217.7 122.1 218.5 123.1 219.1 124.3C219.9 125.5 220.3 126.8 220.5 128.3Z" fill="#182649"/>
<path d="M224.8 145.1V119.2H235C237 119.2 238.6 119.5 240 120.2C241.4 120.9 242.4 121.9 243.2 123.1C244 124.3 244.3 125.9 244.3 127.6C244.3 129.3 243.9 130.8 243.2 132C242.5 133.2 241.4 134.2 240 134.8C238.6 135.5 236.9 135.8 234.9 135.8H228V131.4H234C235 131.4 235.9 131.3 236.6 131C237.3 130.7 237.8 130.3 238.2 129.7C238.5 129.1 238.7 128.4 238.7 127.6C238.7 126.7 238.5 126 238.2 125.4C237.9 124.8 237.3 124.4 236.6 124.1C235.9 123.8 235 123.6 234 123.6H230.3V145H224.8V145.1ZM238.8 133.4L245.2 145.2H239.2L232.9 133.4H238.8Z" fill="#182649"/>
<path d="M264.5 119.2H270V136C270 137.9 269.6 139.5 268.7 141C267.8 142.4 266.5 143.5 264.9 144.3C263.3 145.1 261.4 145.5 259.3 145.5C257.1 145.5 255.3 145.1 253.7 144.3C252.1 143.5 250.8 142.4 249.9 141C249 139.6 248.6 137.9 248.6 136V119.2H254.1V135.6C254.1 136.6 254.3 137.5 254.8 138.2C255.2 139 255.8 139.6 256.6 140C257.4 140.4 258.3 140.7 259.4 140.7C260.5 140.7 261.4 140.5 262.2 140C263 139.6 263.6 139 264 138.2C264.4 137.4 264.7 136.6 264.7 135.6V119.2H264.5Z" fill="#182649"/>
<path d="M274.6 145.1V141.8L287.5 123.7H274.5V119.2H294.3V122.5L281.4 140.6H294.4V145.1H274.6Z" fill="#182649"/>
<path d="M129.8 86.8C135.3 86.4 140.7 86 145.9 85.5V85.4C148.5 85.1 151.3 84.9 154.1 84.5V84.6C159.8 84 165.3 83.2 170.6 82.4C173.4 82 176.2 81.6 179.1 81.1C179.2 81.1 179.3 81.1 179.3 81.1C210.4 76 246 67 274.6 51C274.6 51 241.1 51 234.4 44.6L241.5 57.1C241.5 57.1 239.1 58.3 234.7 60.2L212.6 19L181 77.6C178.1 78.3 175.1 79 172.1 79.6L189.5 46.2V19L155 82.9C152.2 83.4 149.4 83.8 146.6 84.2L166.4 46.2V19L130.1 86.2C122.3 87 114.2 87.5 105.8 87.8C105.8 87.8 115.1 87.8 129.8 86.8ZM212.6 46.2L222.4 65C215.9 67.4 208 70.1 198.8 72.8L212.6 46.2Z" fill="url(#paint0_linear_81_1416)"/>
<path d="M129.2 87.9L120.1 104.7H135.9L144.9 87.5C139.2 87.7 133.9 87.9 129.2 87.9Z" fill="url(#paint1_linear_81_1416)"/>
<path d="M152.7 87.1L143.2 104.7H159L168.8 86C163.2 86.4 157.9 86.8 152.7 87.1Z" fill="url(#paint2_linear_81_1416)"/>
<path d="M166.4 104.7H182.2L193.4 83.3C187.8 84.1 182.3 84.7 177 85.2L166.4 104.7Z" fill="url(#paint3_linear_81_1416)"/>
<path d="M228.5 76.7999L243 104.7H258.8L241.8 73.2C237.5 74.5 233 75.6999 228.5 76.7999Z" fill="url(#paint4_linear_81_1416)"/>
</g>
<defs>
<linearGradient id="paint0_linear_81_1416" x1="110.687" y1="79.1055" x2="299.095" y2="4.9962" gradientUnits="userSpaceOnUse">
<stop stop-color="#182649"/>
<stop offset="0.2176" stop-color="#8A97A9"/>
<stop offset="0.2451" stop-color="#728197"/>
<stop offset="0.2904" stop-color="#51627F"/>
<stop offset="0.3338" stop-color="#394B6D"/>
<stop offset="0.3741" stop-color="#2B3E63"/>
<stop offset="0.4081" stop-color="#26395F"/>
<stop offset="0.6298" stop-color="#A0A9B5"/>
<stop offset="1" stop-color="#AAB2BC"/>
</linearGradient>
<linearGradient id="paint1_linear_81_1416" x1="119.482" y1="101.463" x2="307.889" y2="27.3535" gradientUnits="userSpaceOnUse">
<stop stop-color="#182649"/>
<stop offset="0.2176" stop-color="#8A97A9"/>
<stop offset="0.2451" stop-color="#728197"/>
<stop offset="0.2904" stop-color="#51627F"/>
<stop offset="0.3338" stop-color="#394B6D"/>
<stop offset="0.3741" stop-color="#2B3E63"/>
<stop offset="0.4081" stop-color="#26395F"/>
<stop offset="0.6298" stop-color="#A0A9B5"/>
<stop offset="1" stop-color="#AAB2BC"/>
</linearGradient>
<linearGradient id="paint2_linear_81_1416" x1="122.466" y1="109.05" x2="310.873" y2="34.9408" gradientUnits="userSpaceOnUse">
<stop stop-color="#182649"/>
<stop offset="0.2176" stop-color="#8A97A9"/>
<stop offset="0.2451" stop-color="#728197"/>
<stop offset="0.2904" stop-color="#51627F"/>
<stop offset="0.3338" stop-color="#394B6D"/>
<stop offset="0.3741" stop-color="#2B3E63"/>
<stop offset="0.4081" stop-color="#26395F"/>
<stop offset="0.6298" stop-color="#A0A9B5"/>
<stop offset="1" stop-color="#AAB2BC"/>
</linearGradient>
<linearGradient id="paint3_linear_81_1416" x1="125.313" y1="116.288" x2="313.72" y2="42.179" gradientUnits="userSpaceOnUse">
<stop stop-color="#182649"/>
<stop offset="0.2176" stop-color="#8A97A9"/>
<stop offset="0.2451" stop-color="#728197"/>
<stop offset="0.2904" stop-color="#51627F"/>
<stop offset="0.3338" stop-color="#394B6D"/>
<stop offset="0.3741" stop-color="#2B3E63"/>
<stop offset="0.4081" stop-color="#26395F"/>
<stop offset="0.6298" stop-color="#A0A9B5"/>
<stop offset="1" stop-color="#AAB2BC"/>
</linearGradient>
<linearGradient id="paint4_linear_81_1416" x1="132.476" y1="134.5" x2="320.884" y2="60.3903" gradientUnits="userSpaceOnUse">
<stop stop-color="#182649"/>
<stop offset="0.2176" stop-color="#8A97A9"/>
<stop offset="0.2451" stop-color="#728197"/>
<stop offset="0.2904" stop-color="#51627F"/>
<stop offset="0.3338" stop-color="#394B6D"/>
<stop offset="0.3741" stop-color="#2B3E63"/>
<stop offset="0.4081" stop-color="#26395F"/>
<stop offset="0.6298" stop-color="#A0A9B5"/>
<stop offset="1" stop-color="#AAB2BC"/>
</linearGradient>
<clipPath id="clip0_81_1416">
<rect width="207.8" height="147.8" fill="white" transform="translate(87 19)"/>
</clipPath>
</defs>
</svg>
