<svg width="382" height="185" viewBox="0 0 382 185" fill="none" xmlns="http://www.w3.org/2000/svg">
<g clip-path="url(#clip0_81_1480)">
<path d="M88.4 166.3H87L91 155.3H92.4L96.4 166.3H95L91.8 157H91.7L88.4 166.3ZM88.9 162H94.5V163.2H88.9V162Z" fill="white"/>
<path d="M107.2 158C107.1 157.5 106.9 157 106.4 156.7C105.9 156.4 105.4 156.2 104.7 156.2C104.2 156.2 103.8 156.3 103.4 156.4C103 156.6 102.8 156.8 102.6 157C102.4 157.3 102.3 157.6 102.3 157.9C102.3 158.2 102.4 158.4 102.5 158.7C102.6 158.9 102.8 159.1 103 159.2C103.2 159.3 103.5 159.5 103.7 159.5C103.9 159.6 104.2 159.7 104.4 159.7L105.5 160C105.8 160.1 106.1 160.2 106.5 160.3C106.9 160.4 107.2 160.6 107.5 160.8C107.8 161 108.1 161.3 108.3 161.7C108.5 162.1 108.6 162.5 108.6 163C108.6 163.6 108.4 164.1 108.1 164.6C107.8 165.1 107.3 165.5 106.7 165.7C106.1 166 105.4 166.1 104.5 166.1C103.7 166.1 103 166 102.5 165.7C101.9 165.4 101.5 165.1 101.1 164.6C100.8 164.1 100.6 163.6 100.5 163H101.9C101.9 163.4 102.1 163.8 102.3 164C102.5 164.3 102.9 164.5 103.2 164.6C103.6 164.7 104 164.8 104.4 164.8C104.9 164.8 105.4 164.7 105.8 164.6C106.2 164.4 106.5 164.2 106.8 163.9C107 163.6 107.2 163.3 107.2 162.9C107.2 162.5 107.1 162.2 106.9 162C106.7 161.8 106.4 161.6 106.1 161.4C105.8 161.3 105.4 161.1 105 161L103.6 160.6C102.7 160.4 102.1 160 101.6 159.5C101.1 159 100.8 158.4 100.8 157.7C100.8 157.1 101 156.5 101.3 156.1C101.6 155.6 102.1 155.3 102.7 155C103.3 154.7 103.9 154.6 104.6 154.6C105.3 154.6 105.9 154.7 106.5 155C107.1 155.3 107.5 155.6 107.8 156C108.1 156.4 108.3 156.9 108.3 157.5H107.2V158Z" fill="white"/>
<path d="M120 158C119.9 157.5 119.7 157 119.2 156.7C118.7 156.4 118.2 156.2 117.5 156.2C117 156.2 116.6 156.3 116.2 156.4C115.8 156.6 115.6 156.8 115.4 157C115.2 157.3 115.1 157.6 115.1 157.9C115.1 158.2 115.2 158.4 115.3 158.7C115.4 158.9 115.6 159.1 115.8 159.2C116 159.3 116.3 159.5 116.5 159.5C116.7 159.6 117 159.7 117.2 159.7L118.3 160C118.6 160.1 118.9 160.2 119.3 160.3C119.7 160.4 120 160.6 120.3 160.8C120.6 161 120.9 161.3 121.1 161.7C121.3 162.1 121.4 162.5 121.4 163C121.4 163.6 121.2 164.1 120.9 164.6C120.6 165.1 120.1 165.5 119.5 165.7C118.9 166 118.2 166.1 117.3 166.1C116.5 166.1 115.8 166 115.3 165.7C114.7 165.4 114.3 165.1 113.9 164.6C113.6 164.1 113.4 163.6 113.3 163H114.7C114.7 163.4 114.9 163.8 115.1 164C115.3 164.3 115.7 164.5 116 164.6C116.4 164.7 116.8 164.8 117.2 164.8C117.7 164.8 118.2 164.7 118.6 164.6C119 164.4 119.3 164.2 119.6 163.9C119.8 163.6 120 163.3 120 162.9C120 162.5 119.9 162.2 119.7 162C119.5 161.8 119.2 161.6 118.9 161.4C118.6 161.3 118.2 161.1 117.8 161L116.4 160.6C115.5 160.4 114.9 160 114.4 159.5C113.9 159 113.6 158.4 113.6 157.7C113.6 157.1 113.8 156.5 114.1 156.1C114.4 155.6 114.9 155.3 115.5 155C116.1 154.7 116.7 154.6 117.4 154.6C118.1 154.6 118.7 154.7 119.3 155C119.9 155.3 120.3 155.6 120.6 156C120.9 156.4 121.1 156.9 121.1 157.5H120V158Z" fill="white"/>
<path d="M126.7 166.3V155.3H133.3V156.5H128V160.2H133V161.4H128V165.1H133.4V166.3H126.7Z" fill="white"/>
<path d="M138.2 156.5V155.3H146.4V156.5H143V166.3H141.7V156.5H138.2Z" fill="white"/>
<path d="M157.6 158C157.5 157.5 157.3 157 156.8 156.7C156.3 156.4 155.8 156.2 155.1 156.2C154.6 156.2 154.2 156.3 153.8 156.4C153.4 156.6 153.2 156.8 153 157C152.8 157.3 152.7 157.6 152.7 157.9C152.7 158.2 152.8 158.4 152.9 158.7C153 158.9 153.2 159.1 153.4 159.2C153.6 159.3 153.9 159.5 154.1 159.5C154.3 159.6 154.6 159.7 154.8 159.7L155.9 160C156.2 160.1 156.5 160.2 156.9 160.3C157.3 160.4 157.6 160.6 157.9 160.8C158.2 161 158.5 161.3 158.7 161.7C158.9 162.1 159 162.5 159 163C159 163.6 158.8 164.1 158.5 164.6C158.2 165.1 157.7 165.5 157.1 165.7C156.5 166 155.8 166.1 154.9 166.1C154.1 166.1 153.4 166 152.9 165.7C152.3 165.4 151.9 165.1 151.5 164.6C151.2 164.1 151 163.6 150.9 163H152.3C152.3 163.4 152.5 163.8 152.7 164C152.9 164.3 153.3 164.5 153.6 164.6C154 164.7 154.4 164.8 154.8 164.8C155.3 164.8 155.8 164.7 156.2 164.6C156.6 164.4 156.9 164.2 157.2 163.9C157.4 163.6 157.6 163.3 157.6 162.9C157.6 162.5 157.5 162.2 157.3 162C157.1 161.8 156.8 161.6 156.5 161.4C156.2 161.3 155.8 161.1 155.4 161L154 160.6C153.1 160.4 152.5 160 152 159.5C151.5 159 151.2 158.4 151.2 157.7C151.2 157.1 151.4 156.5 151.7 156.1C152 155.6 152.5 155.3 153.1 155C153.7 154.7 154.3 154.6 155 154.6C155.7 154.6 156.3 154.7 156.9 155C157.5 155.3 157.9 155.6 158.2 156C158.5 156.4 158.7 156.9 158.7 157.5H157.6V158Z" fill="white"/>
<path d="M172.9 155.3V166.3H171.6V155.3H172.9Z" fill="white"/>
<path d="M187.4 155.3V166.3H186.1L180.1 157.7H180V166.3H178.7V155.3H180L186 163.9H186.1V155.3H187.4Z" fill="white"/>
<path d="M193.6 155.3L196.9 164.5H197L200.3 155.3H201.7L197.7 166.3H196.3L192.3 155.3H193.6Z" fill="white"/>
<path d="M206.4 166.3V155.3H213V156.5H207.7V160.2H212.7V161.4H207.7V165.1H213.1V166.3H206.4Z" fill="white"/>
<path d="M224.5 158C224.4 157.5 224.2 157 223.7 156.7C223.2 156.4 222.7 156.2 222 156.2C221.5 156.2 221.1 156.3 220.7 156.4C220.3 156.6 220.1 156.8 219.9 157C219.7 157.3 219.6 157.6 219.6 157.9C219.6 158.2 219.7 158.4 219.8 158.7C219.9 158.9 220.1 159.1 220.3 159.2C220.5 159.3 220.8 159.5 221 159.5C221.2 159.6 221.5 159.7 221.7 159.7L222.8 160C223.1 160.1 223.4 160.2 223.8 160.3C224.2 160.4 224.5 160.6 224.8 160.8C225.1 161 225.4 161.3 225.6 161.7C225.8 162.1 225.9 162.5 225.9 163C225.9 163.6 225.7 164.1 225.4 164.6C225.1 165.1 224.6 165.5 224 165.7C223.4 166 222.7 166.1 221.8 166.1C221 166.1 220.3 166 219.8 165.7C219.2 165.4 218.8 165.1 218.4 164.6C218.1 164.1 217.9 163.6 217.8 163H219.2C219.2 163.4 219.4 163.8 219.6 164C219.8 164.3 220.2 164.5 220.5 164.6C220.9 164.7 221.3 164.8 221.7 164.8C222.2 164.8 222.7 164.7 223.1 164.6C223.5 164.4 223.8 164.2 224.1 163.9C224.3 163.6 224.5 163.3 224.5 162.9C224.5 162.5 224.4 162.2 224.2 162C224 161.8 223.7 161.6 223.4 161.4C223.1 161.3 222.7 161.1 222.3 161L220.9 160.6C220 160.4 219.4 160 218.9 159.5C218.4 159 218.1 158.4 218.1 157.7C218.1 157.1 218.3 156.5 218.6 156.1C218.9 155.6 219.4 155.3 220 155C220.6 154.7 221.2 154.6 221.9 154.6C222.6 154.6 223.2 154.7 223.8 155C224.4 155.3 224.8 155.6 225.1 156C225.4 156.4 225.6 156.9 225.6 157.5H224.5V158Z" fill="white"/>
<path d="M230.7 156.5V155.3H238.9V156.5H235.4V166.3H234.1V156.5H230.7Z" fill="white"/>
<path d="M244 155.3H245.6L249.3 164.4H249.4L253.1 155.3H254.7V166.3H253.5V158H253.4L250 166.3H248.8L245.4 158H245.3V166.3H244V155.3Z" fill="white"/>
<path d="M260.5 166.3V155.3H267.1V156.5H261.8V160.2H266.8V161.4H261.8V165.1H267.2V166.3H260.5Z" fill="white"/>
<path d="M281.4 155.3V166.3H280.1L274.1 157.7H274V166.3H272.7V155.3H274L280 163.9H280.1V155.3H281.4Z" fill="white"/>
<path d="M286.5 156.5V155.3H294.7V156.5H291.2V166.3H290V156.5H286.5Z" fill="white"/>
<path d="M100.4 139.1H100.2L94 119.8H88L96.8 145.2H103.7L112.5 119.8H106.6L100.4 139.1Z" fill="white"/>
<path d="M133.1 124.2V119.8H115.9V145.2H133.1V140.8H121.3V134.7H132.2V130.3H121.3V124.2H133.1Z" fill="white"/>
<path d="M152.6 135.2C154 134.6 155 133.6 155.8 132.4C156.5 131.2 156.9 129.7 156.9 128C156.9 126.3 156.5 124.9 155.8 123.6C155.1 122.4 154 121.4 152.7 120.7C151.3 120 149.7 119.7 147.8 119.7H137.8V145.2H143.2V136.2H147L151.8 145.2H157.7L152.3 135.3C152.5 135.3 152.5 135.3 152.6 135.2ZM143.1 124.2H146.7C147.7 124.2 148.6 124.4 149.3 124.7C150 125 150.5 125.4 150.8 126C151.1 126.6 151.3 127.3 151.3 128.1C151.3 128.9 151.1 129.6 150.8 130.2C150.5 130.8 150 131.2 149.3 131.5C148.6 131.8 147.8 131.9 146.7 131.9H143V124.2H143.1Z" fill="white"/>
<path d="M168.4 119.8L159.6 145.3H165.4L167.3 139.5H176.5L178.4 145.3H184.2L175.4 119.8H168.4ZM168.7 135.2L171.8 125.6H172L175.1 135.2H168.7Z" fill="white"/>
<path d="M217.4 139.9C218 138.8 218.3 137.7 218.5 136.5H213.1C213 137.2 212.8 137.8 212.4 138.3C212.1 138.8 211.7 139.3 211.2 139.6C210.7 139.9 210.2 140.2 209.6 140.4C209 140.6 208.3 140.7 207.6 140.7C206.3 140.7 205.2 140.4 204.2 139.8C203.2 139.2 202.5 138.2 201.9 137C201.4 135.8 201.1 134.2 201.1 132.4C201.1 130.6 201.4 129.1 201.9 127.9C202.4 126.7 203.2 125.7 204.2 125.1C205.2 124.4 206.3 124.1 207.6 124.1C208.3 124.1 209 124.2 209.6 124.4C210.2 124.6 210.8 124.9 211.3 125.3C211.8 125.7 212.2 126.2 212.5 126.7C212.8 127.3 213 127.9 213.1 128.6H218.5C218.3 127.1 217.9 125.8 217.3 124.7C216.7 123.6 215.9 122.6 214.9 121.8C213.9 121 212.8 120.4 211.5 120C210.2 119.6 208.9 119.4 207.4 119.4C205.2 119.4 203.1 119.9 201.4 120.9C199.6 121.9 198.2 123.4 197.1 125.4C196.1 127.3 195.5 129.7 195.5 132.5C195.5 135.3 196 137.6 197 139.6C198 141.5 199.4 143 201.2 144.1C203 145.1 205 145.6 207.3 145.6C208.9 145.6 210.4 145.4 211.7 144.9C213 144.4 214.1 143.7 215.1 142.9C216.1 142 216.9 141 217.4 139.9Z" fill="white"/>
<path d="M237.4 135.3C237.5 135.3 237.6 135.2 237.6 135.2C239 134.6 240 133.6 240.8 132.4C241.5 131.2 241.9 129.7 241.9 128C241.9 126.3 241.5 124.9 240.8 123.6C240.1 122.4 239 121.4 237.7 120.7C236.3 120 234.7 119.7 232.8 119.7H222.8V145.2H228.2V136.2H232.1L236.9 145.2H242.8L237.4 135.3ZM228.1 124.2H231.7C232.7 124.2 233.6 124.4 234.3 124.7C235 125 235.5 125.4 235.8 126C236.1 126.6 236.3 127.3 236.3 128.1C236.3 128.9 236.1 129.6 235.8 130.2C235.5 130.8 235 131.2 234.3 131.5C233.6 131.8 232.8 131.9 231.7 131.9H228V124.2H228.1Z" fill="white"/>
<path d="M261.7 135.8C261.7 136.8 261.5 137.6 261.1 138.4C260.7 139.2 260.1 139.7 259.3 140.2C258.5 140.6 257.6 140.8 256.6 140.8C255.6 140.8 254.7 140.6 253.9 140.2C253.1 139.8 252.5 139.2 252.1 138.4C251.7 137.6 251.5 136.8 251.5 135.8V119.7H246V136.2C246 138.1 246.4 139.7 247.3 141.1C248.2 142.5 249.4 143.6 251 144.4C252.6 145.2 254.4 145.6 256.5 145.6C258.6 145.6 260.4 145.2 262 144.4C263.6 143.6 264.8 142.5 265.7 141.1C266.6 139.7 267 138.1 267 136.2V119.7H261.6V135.8H261.7Z" fill="white"/>
<path d="M291.1 119.8H271.6V124.2H284.3L271.6 142V145.2H291.1V140.8H278.4L291.1 122.9V119.8Z" fill="white"/>
<path d="M127.9 86.8C133.4 86.4 138.8 86 144 85.5V85.4C146.6 85.1 149.4 84.9 152.2 84.5V84.6C157.9 84 163.4 83.2 168.7 82.4C171.5 82 174.3 81.6 177.2 81.1C177.3 81.1 177.4 81.1 177.4 81.1C208.5 76 244.1 67 272.7 51C272.7 51 239.2 51 232.5 44.6L239.6 57.1C239.6 57.1 237.2 58.3 232.8 60.2L210.7 19L179.1 77.6C176.2 78.3 173.2 79 170.2 79.6L187.6 46.2V19L153.1 82.9C150.3 83.4 147.5 83.8 144.7 84.2L164.5 46.2V19L128.2 86.2C120.4 87 112.3 87.5 103.9 87.8C103.9 87.8 113.2 87.8 127.9 86.8ZM210.7 46.2L220.5 65C214 67.4 206.1 70.1 196.9 72.8L210.7 46.2Z" fill="white"/>
<path d="M127.3 87.9L118.2 104.7H134L143 87.5C137.3 87.7 132 87.9 127.3 87.9Z" fill="white"/>
<path d="M150.8 87.1L141.3 104.7H157.1L166.9 86C161.3 86.4 156 86.8 150.8 87.1Z" fill="white"/>
<path d="M164.5 104.7H180.3L191.5 83.3C185.9 84 180.4 84.7 175 85.2L164.5 104.7Z" fill="white"/>
<path d="M226.6 76.7999L241.1 104.7H256.9L239.9 73.2C235.6 74.5 231.1 75.6999 226.6 76.7999Z" fill="white"/>
</g>
<defs>
<clipPath id="clip0_81_1480">
<rect width="207.8" height="147.5" fill="white" transform="translate(87 19)"/>
</clipPath>
</defs>
</svg>
