<svg width="383" height="65" viewBox="0 0 383 65" fill="none" xmlns="http://www.w3.org/2000/svg">
<g clip-path="url(#clip0_61_152)">
<g clip-path="url(#clip1_61_152)">
<path d="M161.9 56.7H160.5L164.5 45.7H165.9L169.9 56.7H168.5L165.2 47.5H165.1L161.9 56.7ZM162.4 52.5H168V53.7H162.4V52.5Z" fill="#182649"/>
<path d="M180.8 48.5C180.7 48 180.5 47.5 180 47.2C179.5 46.9 179 46.7 178.3 46.7C177.8 46.7 177.4 46.8 177 46.9C176.6 47.1 176.4 47.3 176.2 47.5C176 47.8 175.9 48.1 175.9 48.4C175.9 48.7 176 48.9 176.1 49.2C176.2 49.4 176.4 49.6 176.6 49.7C176.8 49.8 177.1 50 177.3 50C177.5 50.1 177.8 50.2 178 50.2L179.1 50.5C179.4 50.6 179.7 50.7 180.1 50.8C180.5 50.9 180.8 51.1 181.1 51.3C181.4 51.5 181.7 51.8 181.9 52.2C182.1 52.6 182.2 53 182.2 53.5C182.2 54.1 182 54.6 181.7 55.1C181.4 55.6 180.9 56 180.3 56.2C179.7 56.5 179 56.6 178.1 56.6C177.3 56.6 176.6 56.5 176.1 56.2C175.5 55.9 175.1 55.6 174.7 55.1C174.4 54.6 174.2 54.1 174.1 53.5H175.5C175.5 53.9 175.7 54.3 175.9 54.5C176.1 54.8 176.5 55 176.8 55.1C177.2 55.2 177.6 55.3 178 55.3C178.5 55.3 179 55.2 179.4 55.1C179.8 54.9 180.1 54.7 180.4 54.4C180.6 54.1 180.8 53.8 180.8 53.4C180.8 53 180.7 52.7 180.5 52.5C180.3 52.3 180 52.1 179.7 51.9C179.4 51.8 179 51.6 178.6 51.5L177.2 51.1C176.3 50.9 175.7 50.5 175.2 50C174.7 49.5 174.4 48.9 174.4 48.2C174.4 47.6 174.6 47 174.9 46.6C175.2 46.1 175.7 45.8 176.3 45.5C176.9 45.2 177.5 45.1 178.2 45.1C178.9 45.1 179.5 45.2 180.1 45.5C180.7 45.8 181.1 46.1 181.4 46.5C181.7 46.9 181.9 47.4 181.9 48H180.8V48.5Z" fill="#182649"/>
<path d="M193.5 48.5C193.4 48 193.2 47.5 192.7 47.2C192.2 46.9 191.7 46.7 191 46.7C190.5 46.7 190.1 46.8 189.7 46.9C189.3 47.1 189.1 47.3 188.9 47.5C188.7 47.8 188.6 48.1 188.6 48.4C188.6 48.7 188.7 48.9 188.8 49.2C188.9 49.4 189.1 49.6 189.3 49.7C189.5 49.8 189.8 50 190 50C190.2 50.1 190.5 50.2 190.7 50.2L191.8 50.5C192.1 50.6 192.4 50.7 192.8 50.8C193.2 50.9 193.5 51.1 193.8 51.3C194.1 51.5 194.4 51.8 194.6 52.2C194.8 52.6 194.9 53 194.9 53.5C194.9 54.1 194.7 54.6 194.4 55.1C194.1 55.6 193.6 56 193 56.2C192.4 56.5 191.7 56.6 190.8 56.6C190 56.6 189.3 56.5 188.8 56.2C188.2 55.9 187.8 55.6 187.4 55.1C187.1 54.6 186.9 54.1 186.8 53.5H188.2C188.2 53.9 188.4 54.3 188.6 54.5C188.8 54.8 189.2 55 189.5 55.1C189.9 55.2 190.3 55.3 190.7 55.3C191.2 55.3 191.7 55.2 192.1 55.1C192.5 54.9 192.8 54.7 193.1 54.4C193.3 54.1 193.5 53.8 193.5 53.4C193.5 53 193.4 52.7 193.2 52.5C193 52.3 192.7 52.1 192.4 51.9C192.1 51.8 191.7 51.6 191.3 51.5L189.9 51.1C189 50.9 188.4 50.5 187.9 50C187.4 49.5 187.1 48.9 187.1 48.2C187.1 47.6 187.3 47 187.6 46.6C187.9 46.1 188.4 45.8 189 45.5C189.6 45.2 190.2 45.1 190.9 45.1C191.6 45.1 192.2 45.2 192.8 45.5C193.4 45.8 193.8 46.1 194.1 46.5C194.4 46.9 194.6 47.4 194.6 48H193.5V48.5Z" fill="#182649"/>
<path d="M200.2 56.7V45.7H206.8V46.9H201.5V50.5999H206.5V51.7999H201.5V55.5H206.9V56.7H200.2Z" fill="#182649"/>
<path d="M211.7 46.9V45.7H219.9V46.9H216.4V56.7H215.1V46.9H211.7Z" fill="#182649"/>
<path d="M231.1 48.5C231 48 230.8 47.5 230.3 47.2C229.8 46.9 229.3 46.7 228.6 46.7C228.1 46.7 227.7 46.8 227.3 46.9C226.9 47.1 226.7 47.3 226.5 47.5C226.3 47.8 226.2 48.1 226.2 48.4C226.2 48.7 226.3 48.9 226.4 49.2C226.5 49.4 226.7 49.6 226.9 49.7C227.1 49.8 227.4 50 227.6 50C227.8 50.1 228.1 50.2 228.3 50.2L229.4 50.5C229.7 50.6 230 50.7 230.4 50.8C230.8 50.9 231.1 51.1 231.4 51.3C231.7 51.5 232 51.8 232.2 52.2C232.4 52.6 232.5 53 232.5 53.5C232.5 54.1 232.3 54.6 232 55.1C231.7 55.6 231.2 56 230.6 56.2C230 56.5 229.3 56.6 228.4 56.6C227.6 56.6 226.9 56.5 226.4 56.2C225.8 55.9 225.4 55.6 225 55.1C224.7 54.6 224.5 54.1 224.4 53.5H225.8C225.8 53.9 226 54.3 226.2 54.5C226.4 54.8 226.8 55 227.1 55.1C227.5 55.2 227.9 55.3 228.3 55.3C228.8 55.3 229.3 55.2 229.7 55.1C230.1 54.9 230.4 54.7 230.7 54.4C230.9 54.1 231.1 53.8 231.1 53.4C231.1 53 231 52.7 230.8 52.5C230.6 52.3 230.3 52.1 230 51.9C229.7 51.8 229.3 51.6 228.9 51.5L227.5 51.1C226.6 50.9 226 50.5 225.5 50C225 49.5 224.7 48.9 224.7 48.2C224.7 47.6 224.9 47 225.2 46.6C225.5 46.1 226 45.8 226.6 45.5C227.2 45.2 227.8 45.1 228.5 45.1C229.2 45.1 229.8 45.2 230.4 45.5C231 45.8 231.4 46.1 231.7 46.5C232 46.9 232.2 47.4 232.2 48H231.1V48.5Z" fill="#182649"/>
<path d="M246.5 45.7999V56.7999H245.2V45.7999H246.5Z" fill="#182649"/>
<path d="M260.9 45.7999V56.7999H259.6L253.6 48.1999H253.5V56.7999H252.2V45.7999H253.5L259.5 54.3999H259.6V45.7999H260.9Z" fill="#182649"/>
<path d="M267.1 45.7999L270.4 54.9999H270.5L273.8 45.7999H275.2L271.2 56.7999H269.8L265.8 45.7999H267.1Z" fill="#182649"/>
<path d="M280 56.7V45.7H286.6V46.9H281.3V50.5999H286.3V51.7999H281.3V55.5H286.7V56.7H280Z" fill="#182649"/>
<path d="M298.1 48.5C298 48 297.8 47.5 297.3 47.2C296.8 46.9 296.3 46.7 295.6 46.7C295.1 46.7 294.7 46.8 294.3 46.9C293.9 47.1 293.7 47.3 293.5 47.5C293.3 47.8 293.2 48.1 293.2 48.4C293.2 48.7 293.3 48.9 293.4 49.2C293.5 49.4 293.7 49.6 293.9 49.7C294.1 49.8 294.4 50 294.6 50C294.8 50.1 295.1 50.2 295.3 50.2L296.4 50.5C296.7 50.6 297 50.7 297.4 50.8C297.8 50.9 298.1 51.1 298.4 51.3C298.7 51.5 299 51.8 299.2 52.2C299.4 52.6 299.5 53 299.5 53.5C299.5 54.1 299.3 54.6 299 55.1C298.7 55.6 298.2 56 297.6 56.2C297 56.5 296.3 56.6 295.4 56.6C294.6 56.6 293.9 56.5 293.4 56.2C292.8 55.9 292.4 55.6 292 55.1C291.7 54.6 291.5 54.1 291.4 53.5H292.8C292.8 53.9 293 54.3 293.2 54.5C293.4 54.8 293.8 55 294.1 55.1C294.5 55.2 294.9 55.3 295.3 55.3C295.8 55.3 296.3 55.2 296.7 55.1C297.1 54.9 297.4 54.7 297.7 54.4C297.9 54.1 298.1 53.8 298.1 53.4C298.1 53 298 52.7 297.8 52.5C297.6 52.3 297.3 52.1 297 51.9C296.7 51.8 296.3 51.6 295.9 51.5L294.5 51.1C293.6 50.9 293 50.5 292.5 50C292 49.5 291.7 48.9 291.7 48.2C291.7 47.6 291.9 47 292.2 46.6C292.5 46.1 293 45.8 293.6 45.5C294.2 45.2 294.8 45.1 295.5 45.1C296.2 45.1 296.8 45.2 297.4 45.5C298 45.8 298.4 46.1 298.7 46.5C299 46.9 299.2 47.4 299.2 48H298.1V48.5Z" fill="#182649"/>
<path d="M304.2 46.9V45.7H312.4V46.9H309V56.7H307.7V46.9H304.2Z" fill="#182649"/>
<path d="M317.6 45.7999H319.2L322.9 54.8999H323L326.7 45.7999H328.3V56.7999H327.1V48.4999H327L323.6 56.7999H322.4L319 48.4999H318.9V56.7999H317.7V45.7999H317.6Z" fill="#182649"/>
<path d="M334.1 56.7V45.7H340.7V46.9H335.4V50.5999H340.4V51.7999H335.4V55.5H340.8V56.7H334.1Z" fill="#182649"/>
<path d="M354.9 45.7999V56.7999H353.6L347.6 48.1999H347.5V56.7999H346.2V45.7999H347.5L353.5 54.3999H353.6V45.7999H354.9Z" fill="#182649"/>
<path d="M360 46.9V45.7H368.2V46.9H364.7V56.7H363.4V46.9H360Z" fill="#182649"/>
<path d="M166.9 8.80005L173.2 28.5H173.4L179.7 8.80005H185.8L176.9 34.7001H169.8L160.9 8.80005H166.9Z" fill="#182649"/>
<path d="M189.2 34.7001V8.80005H206.7V13.3H194.7V19.5H205.8V24H194.7V30.2001H206.7V34.7001H189.2Z" fill="#182649"/>
<path d="M211.4 34.7001V8.80005H221.6C223.6 8.80005 225.2 9.10005 226.6 9.80005C228 10.5 229 11.5 229.8 12.7C230.5 14 230.9 15.5 230.9 17.2C230.9 18.9 230.5 20.4 229.8 21.6C229.1 22.8 228 23.8 226.6 24.4C225.2 25.1 223.5 25.4 221.5 25.4H214.7V21H220.7C221.7 21 222.6 20.9 223.3 20.6C224 20.3 224.5 19.9 224.9 19.3C225.2 18.7 225.4 18 225.4 17.2C225.4 16.3 225.2 15.6 224.9 15C224.6 14.4 224 14 223.3 13.7C222.6 13.4 221.7 13.2 220.7 13.2H217V34.6H211.4V34.7001ZM225.4 22.9L231.8 34.7001H225.8L219.5 22.9H225.4Z" fill="#182649"/>
<path d="M239.6 34.7001H233.7L242.6 8.80005H249.7L258.6 34.7001H252.7L246.2 14.7H246L239.6 34.7001ZM239.2 24.5H253.1V28.8H239.2V24.5Z" fill="#182649"/>
<path d="M293.6 17.8H288C287.9 17.1 287.7 16.4 287.4 15.9C287.1 15.3 286.7 14.9 286.2 14.5C285.7 14.1 285.1 13.8 284.5 13.6C283.9 13.4 283.2 13.3 282.4 13.3C281.1 13.3 279.9 13.6 278.9 14.3C277.9 15 277.1 15.9 276.6 17.2C276.1 18.5 275.8 20 275.8 21.8C275.8 23.6 276.1 25.2 276.6 26.5C277.2 27.8 277.9 28.7 278.9 29.3C279.9 29.9 281 30.3 282.4 30.3C283.1 30.3 283.8 30.2 284.4 30C285 29.8 285.6 29.5 286.1 29.1C286.6 28.7 287 28.3 287.3 27.7C287.6 27.2 287.9 26.5 288 25.9H293.5C293.4 27.1 293 28.2 292.4 29.3C291.8 30.4 291.1 31.4 290.1 32.2C289.1 33.1 288 33.7 286.7 34.2C285.4 34.7 283.9 35 282.2 35C279.9 35 277.8 34.5 276 33.4C274.2 32.4 272.7 30.8 271.7 28.9C270.6 26.9 270.1 24.5 270.1 21.7C270.1 18.9 270.6 16.5 271.7 14.5C272.8 12.5 274.2 11 276 10C277.8 9.00002 279.9 8.40002 282.1 8.40002C283.6 8.40002 285 8.60002 286.3 9.00002C287.6 9.40002 288.7 10 289.7 10.8C290.7 11.6 291.5 12.6 292.1 13.8C293 15 293.4 16.3 293.6 17.8Z" fill="#182649"/>
<path d="M297.9 34.7001V8.80005H308.1C310.1 8.80005 311.7 9.10005 313.1 9.80005C314.5 10.5 315.5 11.5 316.3 12.7C317 14 317.4 15.5 317.4 17.2C317.4 18.9 317 20.4 316.3 21.6C315.6 22.8 314.5 23.8 313.1 24.4C311.7 25.1 310 25.4 308 25.4H301.2V21H307.2C308.2 21 309.1 20.9 309.8 20.6C310.5 20.3 311 19.9 311.4 19.3C311.7 18.7 311.9 18 311.9 17.2C311.9 16.3 311.7 15.6 311.4 15C311.1 14.4 310.5 14 309.8 13.7C309.1 13.4 308.2 13.2 307.2 13.2H303.5V34.6H297.9V34.7001ZM311.9 22.9L318.3 34.7001H312.3L306 22.9H311.9Z" fill="#182649"/>
<path d="M337.6 8.80005H343.1V25.6C343.1 27.5 342.7 29.1 341.8 30.6C340.9 32 339.6 33.1001 338 33.9001C336.4 34.7001 334.5 35.1 332.4 35.1C330.2 35.1 328.4 34.7001 326.8 33.9001C325.2 33.1001 323.9 32 323 30.6C322.1 29.2 321.7 27.5 321.7 25.6V8.80005H327.2V25.2001C327.2 26.2001 327.4 27.1 327.9 27.8C328.3 28.6 328.9 29.2 329.7 29.6C330.5 30 331.4 30.3 332.5 30.3C333.6 30.3 334.5 30.1 335.3 29.6C336.1 29.2 336.7 28.6 337.1 27.8C337.5 27 337.8 26.2001 337.8 25.2001V8.80005H337.6Z" fill="#182649"/>
<path d="M347.7 34.7001V31.4001L360.6 13.3H347.6V8.80005H367.4V12L354.5 30.1H367.5V34.6H347.7V34.7001Z" fill="#182649"/>
<path d="M35.3 53.5C40 53.2 44.5 52.8 49 52.4V52.3C51.2 52.1 53.5 51.8 55.9 51.6V51.7C60.7 51.2 65.4 50.5 69.9 49.9C72.3 49.6 74.6 49.2 77.1 48.8C77.2 48.8 77.2 48.8 77.3 48.8C103.7 44.5 133.9 36.8 158.1 23.2C158.1 23.2 129.7 23.2 124 17.8L130.1 28.4C130.1 28.4 128.1 29.4 124.3 31L105.6 -4L78.8 45.7C76.4 46.3 73.8 46.9 71.3 47.4L86 19.1V-4L56.7 50.2C54.4 50.6 52 51 49.6 51.3L66.4 19.1V-4L35.6 53C28.9 53.7 22.1 54.1 15 54.3C15 54.3 22.8 54.3 35.3 53.5ZM105.6 19.1L113.8 35C108.3 37 101.6 39.3 93.8 41.6L105.6 19.1Z" fill="url(#paint0_linear_61_152)"/>
<path d="M34.8 54.5L27.1 68.7H40.5L48.1 54.1C43.3 54.3 38.8 54.4 34.8 54.5Z" fill="url(#paint1_linear_61_152)"/>
<path d="M54.7999 53.8L46.7 68.7H60.0999L68.4 52.8C63.7 53.2 59.0999 53.5 54.7999 53.8Z" fill="url(#paint2_linear_61_152)"/>
<path d="M66.3 68.7H79.7L89.2 50.5C84.5 51.1 79.8 51.7 75.3 52.1L66.3 68.7Z" fill="url(#paint3_linear_61_152)"/>
<path d="M119 45L131.3 68.7H144.7L130.4 42C126.7 43.1 122.9 44.1 119 45Z" fill="url(#paint4_linear_61_152)"/>
</g>
</g>
<defs>
<linearGradient id="paint0_linear_61_152" x1="19.123" y1="46.9756" x2="178.911" y2="-15.8766" gradientUnits="userSpaceOnUse">
<stop stop-color="#182649"/>
<stop offset="0.2176" stop-color="#8A97A9"/>
<stop offset="0.2451" stop-color="#728197"/>
<stop offset="0.2904" stop-color="#51627F"/>
<stop offset="0.3338" stop-color="#394B6D"/>
<stop offset="0.3741" stop-color="#2B3E63"/>
<stop offset="0.4081" stop-color="#26395F"/>
<stop offset="0.6298" stop-color="#A0A9B5"/>
<stop offset="1" stop-color="#AAB2BC"/>
</linearGradient>
<linearGradient id="paint1_linear_61_152" x1="26.5813" y1="65.9368" x2="186.37" y2="3.08458" gradientUnits="userSpaceOnUse">
<stop stop-color="#182649"/>
<stop offset="0.2176" stop-color="#8A97A9"/>
<stop offset="0.2451" stop-color="#728197"/>
<stop offset="0.2904" stop-color="#51627F"/>
<stop offset="0.3338" stop-color="#394B6D"/>
<stop offset="0.3741" stop-color="#2B3E63"/>
<stop offset="0.4081" stop-color="#26395F"/>
<stop offset="0.6298" stop-color="#A0A9B5"/>
<stop offset="1" stop-color="#AAB2BC"/>
</linearGradient>
<linearGradient id="paint2_linear_61_152" x1="29.1124" y1="72.3717" x2="188.901" y2="9.51953" gradientUnits="userSpaceOnUse">
<stop stop-color="#182649"/>
<stop offset="0.2176" stop-color="#8A97A9"/>
<stop offset="0.2451" stop-color="#728197"/>
<stop offset="0.2904" stop-color="#51627F"/>
<stop offset="0.3338" stop-color="#394B6D"/>
<stop offset="0.3741" stop-color="#2B3E63"/>
<stop offset="0.4081" stop-color="#26395F"/>
<stop offset="0.6298" stop-color="#A0A9B5"/>
<stop offset="1" stop-color="#AAB2BC"/>
</linearGradient>
<linearGradient id="paint3_linear_61_152" x1="31.5272" y1="78.5103" x2="191.316" y2="15.6581" gradientUnits="userSpaceOnUse">
<stop stop-color="#182649"/>
<stop offset="0.2176" stop-color="#8A97A9"/>
<stop offset="0.2451" stop-color="#728197"/>
<stop offset="0.2904" stop-color="#51627F"/>
<stop offset="0.3338" stop-color="#394B6D"/>
<stop offset="0.3741" stop-color="#2B3E63"/>
<stop offset="0.4081" stop-color="#26395F"/>
<stop offset="0.6298" stop-color="#A0A9B5"/>
<stop offset="1" stop-color="#AAB2BC"/>
</linearGradient>
<linearGradient id="paint4_linear_61_152" x1="37.6023" y1="93.9554" x2="197.391" y2="31.1032" gradientUnits="userSpaceOnUse">
<stop stop-color="#182649"/>
<stop offset="0.2176" stop-color="#8A97A9"/>
<stop offset="0.2451" stop-color="#728197"/>
<stop offset="0.2904" stop-color="#51627F"/>
<stop offset="0.3338" stop-color="#394B6D"/>
<stop offset="0.3741" stop-color="#2B3E63"/>
<stop offset="0.4081" stop-color="#26395F"/>
<stop offset="0.6298" stop-color="#A0A9B5"/>
<stop offset="1" stop-color="#AAB2BC"/>
</linearGradient>
<clipPath id="clip0_61_152">
<rect width="382.3" height="64.5" fill="white"/>
</clipPath>
<clipPath id="clip1_61_152">
<rect width="353.3" height="72.7" fill="white" transform="translate(15 -4)"/>
</clipPath>
</defs>
</svg>
